{"asset":{"version":"2.0","generator":"VECTARY"},"scene":0,"extensionsUsed":["KHR_texture_transform"],"nodes":[{"translation":[-0.008105907440185547,0.02513535145261618,-0.015456991195678711],"scale":[0.00043416952011618583,0.00043416952011618583,0.00043416952011618583],"rotation":[0,0.7071067811865475,0,0.7071067811865476],"name":"Marianne","mesh":0}],"materials":[{"pbrMetallicRoughness":{"baseColorFactor":[1,1,1,1],"baseColorTexture":{"index":0,"extensions":{"KHR_texture_transform":{"offset":[0,0],"scale":[1,1]}}},"metallicFactor":0,"roughnessFactor":0.95},"name":"Worn Concrete 1","normalTexture":{"index":1,"scale":1,"extensions":{"KHR_texture_transform":{"offset":[0,0],"scale":[1,1]}}},"emissiveFactor":[0,0,0],"alphaMode":"OPAQUE","doubleSided":false}],"textures":[{"sampler":0,"source":0},{"sampler":0,"source":1}],"images":[{"uri":"4cef785c-de13-49f4-b36e-e54e722956a5.jpg","mimeType":"image/jpeg"},{"uri":"shared:dffb94f6-1971-40d1-bf17-e83cd8fef70f:8ee2a586-f24f-44b8-b01f-ca60ef474968.jpg","mimeType":"image/jpeg"}],"samplers":[{"wrapS":10497,"wrapT":10497}],"meshes":[{"primitives":[{"mode":4,"attributes":{"POSITION":1,"NORMAL":2,"TEXCOORD_0":3},"material":0,"indices":0}]}],"accessors":[{"bufferView":0,"byteOffset":0,"componentType":5125,"count":2742198,"type":"SCALAR"},{"bufferView":1,"byteOffset":0,"componentType":5126,"count":2742198,"max":[42.35408020019531,58.070945739746094,51.01568603515625],"min":[-42.35408020019531,-58.070945739746094,0],"type":"VEC3"},{"bufferView":2,"byteOffset":0,"componentType":5126,"count":2742198,"type":"VEC3"},{"bufferView":3,"byteOffset":0,"componentType":5126,"count":2742198,"type":"VEC2"}],"bufferViews":[{"buffer":0,"byteOffset":0,"byteLength":10968792,"target":34963},{"buffer":0,"byteOffset":10968792,"byteLength":32906376,"target":34962},{"buffer":0,"byteOffset":43875168,"byteLength":32906376,"target":34962},{"buffer":0,"byteOffset":76781544,"byteLength":21937584,"target":34962}],"scenes":[{"nodes":[0],"name":"Project Name"}],"buffers":[{"byteLength":98719128,"uri":"ProjectName.bin"}]}